<svg version="1.1" id="Layer_1" xmlns="http://www.w3.org/2000/svg" x="0" y="0" viewBox="0 0 295.1 72"
  style="enable-background:new 0 0 295.1 72" xml:space="preserve">
  <style>
    .st0 {
      fill: #fff
    }
  </style>
  <path class="st0"
    d="m0 26 13.4-10v43h16.4c6.2 0 10.5-4 10.5-9.8 0-5.8-4.3-9.8-10.5-9.8h-9l11.5-11.5c3.2-3.2 3.9-5.2 3.9-7.4 0-4.4-3.4-7.5-8.8-7.5H0V1h29.7c11.6 0 19.9 7 19.9 17.1 0 4.8-1 8.4-4.6 12l-2.4 2.4c6.5 3.2 11.1 9.7 11.1 18C53.7 62.6 44 71 30.4 71H0V26zM61 1h13.4v14.8H61V1zm0 27.8 13.4-10V71H61V28.8zM84 54V15.8L97.4 5.4v14.4H112v12.5H97.4v20.2c0 3.7 2.3 6 6 6h8.6V71h-11.1C90.4 71 84 64.6 84 54zM136.5 19.8h9v12.5h-8.6c-3.7 0-6 2.3-6 6V71h-13.4V38.8c0-12.2 6.8-19 19-19zM146.3 45.4c0-14.5 10.1-26.6 26.2-26.6 16 0 26.2 11.2 26.2 26.6 0 .7 0 1.4-.1 2.1h-30L183.9 37c-2.3-3.9-6.2-6.4-11.5-6.4-8.6 0-13.7 6.7-13.7 14.8 0 10 6.4 14.8 14.2 14.8 4.6 0 8.7-2 11.1-6h13.4C193.9 65.9 183.6 72 172.9 72c-13.9 0-26.6-8.8-26.6-26.6zM224.5 1h15.1v12.5h-14.7c-3.7 0-6 2.3-6 6V24h27.4v47h-13.4V36.5h-14V71h-13.4V20c.1-12.2 6.9-19 19-19zM257.3 10.4 270.7 0v71h-13.4V10.4zM281.7 10.4 295.1 0v71h-13.4V10.4z" />
</svg>
